<?xml version="1.0" standalone="no"?>
<!DOCTYPE svg PUBLIC "-//W3C//DTD SVG 20010904//EN"
 "http://www.w3.org/TR/2001/REC-SVG-20010904/DTD/svg10.dtd">
<svg version="1.0" xmlns="http://www.w3.org/2000/svg"
 width="88.000000pt" height="88.000000pt" viewBox="0 0 88.000000 88.000000"
 preserveAspectRatio="xMidYMid meet">
<metadata>
Created by potrace 1.14, written by Peter Selinger 2001-2017
</metadata>
<g transform="translate(0.000000,88.000000) scale(0.100000,-0.100000)"
fill="#000000" stroke="none">
<path d="M347 760 c-271 -69 -361 -386 -161 -569 72 -66 140 -91 248 -91 76 0
90 3 155 36 82 41 132 88 169 159 22 42 26 63 27 135 0 73 -4 93 -28 141 -33
69 -100 132 -173 166 -61 28 -174 39 -237 23z m233 -36 c115 -51 191 -163 192
-281 1 -129 -63 -235 -176 -293 -64 -33 -75 -35 -160 -35 -113 1 -185 27 -250
89 -64 63 -88 116 -94 206 -5 100 21 172 88 239 109 109 261 137 400 75z"/>
<path d="M345 730 c-3 -5 -1 -10 4 -10 6 0 11 -6 11 -14 0 -8 4 -17 9 -20 4
-3 8 8 7 24 -1 29 -18 40 -31 20z"/>
<path d="M400 715 c0 -19 5 -25 23 -25 13 0 17 3 11 8 -6 4 -10 15 -8 25 1 9
-4 17 -12 17 -8 0 -14 -10 -14 -25z"/>
<path d="M458 715 c-3 -14 -1 -25 3 -25 5 0 9 5 9 12 0 6 6 4 13 -7 13 -16 14
-15 15 14 0 24 -4 31 -18 31 -11 0 -19 -9 -22 -25z"/>
<path d="M520 721 c0 -5 -3 -17 -7 -27 -4 -12 -3 -15 5 -10 7 4 12 3 12 -3 0
-6 7 -8 15 -5 9 4 15 1 15 -7 0 -8 6 -3 13 11 9 17 10 27 3 32 -17 12 -26 9
-26 -7 0 -8 -5 -15 -11 -15 -6 0 -9 9 -6 20 3 11 1 20 -4 20 -5 0 -9 -4 -9 -9z"/>
<path d="M290 705 c0 -9 9 -15 23 -16 21 0 21 -1 2 -9 -19 -8 -19 -9 3 -9 13
-1 22 5 22 14 0 9 -9 15 -22 15 -19 0 -20 2 -8 10 13 8 12 10 -2 10 -10 0 -18
-7 -18 -15z"/>
<path d="M244 674 c3 -9 6 -20 6 -25 0 -5 5 -9 11 -9 6 0 9 7 6 14 -4 11 -1
13 11 10 14 -5 13 -3 -2 10 -25 20 -40 20 -32 0z"/>
<path d="M368 666 c-186 -49 -248 -256 -117 -388 47 -47 118 -78 179 -78 55 0
132 31 175 71 29 27 46 36 50 28 6 -8 10 -7 16 2 7 11 9 11 9 1 0 -8 5 -10 12
-6 8 5 9 2 5 -9 -7 -19 8 -23 19 -5 9 15 -26 40 -48 34 -22 -5 -21 -7 -3 37
16 39 21 147 6 147 -5 0 -7 -17 -4 -38 11 -85 -47 -185 -132 -223 -56 -26
-153 -25 -210 2 -171 80 -173 308 -3 393 113 57 245 21 315 -85 30 -45 42 -46
19 -1 -19 36 -80 90 -120 107 -49 20 -117 24 -168 11z"/>
<path d="M620 658 c0 -18 -2 -20 -10 -8 -8 13 -10 13 -10 -2 0 -26 21 -33 37
-12 15 20 13 36 -5 42 -7 2 -12 -6 -12 -20z"/>
<path d="M190 643 c0 -9 40 -36 45 -31 2 2 -8 11 -21 21 -13 10 -24 14 -24 10z"/>
<path d="M645 620 c-18 -20 -18 -21 0 -14 15 6 17 4 12 -9 -8 -20 2 -21 26 -3
22 17 22 27 0 19 -12 -5 -15 -2 -10 10 9 23 -6 21 -28 -3z"/>
<path d="M180 616 c14 -18 13 -19 -4 -13 -14 6 -17 4 -12 -8 3 -10 -1 -15 -12
-16 -14 0 -14 -2 3 -9 11 -5 26 -9 34 -9 11 -1 11 2 0 16 -12 15 -12 16 4 10
24 -9 21 6 -5 29 -22 19 -22 19 -8 0z"/>
<path d="M687 578 c-19 -10 -23 -33 -7 -43 17 -11 50 5 50 25 0 22 -21 31 -43
18z m28 -18 c-3 -5 -13 -10 -21 -10 -8 0 -12 5 -9 10 3 6 13 10 21 10 8 0 12
-4 9 -10z"/>
<path d="M117 536 c-4 -10 5 -18 24 -25 24 -8 31 -7 35 4 3 8 3 19 -1 25 -9
15 -52 12 -58 -4z m48 -6 c3 -5 -1 -10 -9 -10 -8 0 -18 5 -21 10 -3 6 1 10 9
10 8 0 18 -4 21 -10z"/>
<path d="M713 523 c-13 -2 -23 -9 -23 -14 0 -6 4 -8 9 -4 5 3 12 1 16 -5 11
-18 35 -11 35 10 0 11 -3 19 -7 19 -5 -1 -18 -4 -30 -6z"/>
<path d="M265 445 l-1 -65 32 0 c54 0 85 49 65 103 -9 24 -16 27 -53 27 l-43
0 0 -65z m65 12 c0 -23 -16 -55 -23 -47 -2 3 -2 22 1 42 4 39 22 43 22 5z"/>
<path d="M380 480 c0 -16 5 -30 10 -30 6 0 10 14 10 30 0 17 -4 30 -10 30 -5
0 -10 -13 -10 -30z"/>
<path d="M424 445 c-15 -50 -17 -65 -7 -69 15 -6 27 10 18 24 -3 6 1 10 9 10
9 0 16 -9 16 -20 0 -19 5 -21 68 -18 l67 3 0 65 c0 63 -1 65 -26 68 -28 3 -59
-20 -59 -44 0 -8 15 -28 32 -45 18 -16 28 -29 24 -29 -5 0 -18 8 -28 17 -15
13 -21 14 -27 5 -5 -8 -12 9 -20 43 -18 78 -40 75 -67 -10z m151 25 c3 -6 -1
-7 -9 -4 -18 7 -21 14 -7 14 6 0 13 -4 16 -10z"/>
<path d="M121 441 c-10 -6 -9 -12 4 -25 20 -20 21 -20 28 -2 7 19 -15 37 -32
27z"/>
<path d="M709 418 c-8 -27 -5 -38 11 -38 23 0 34 26 14 34 -17 6 -24 7 -25 4z"/>
<path d="M140 325 c-9 -11 -10 -19 -3 -26 14 -14 53 6 53 26 0 20 -34 19 -50
0z m35 -5 c-3 -5 -14 -10 -23 -10 -15 0 -15 2 -2 10 20 13 33 13 25 0z"/>
<path d="M176 285 c-16 -12 -17 -18 -8 -27 15 -15 47 1 47 22 0 19 -17 21 -39
5z"/>
<path d="M627 273 c-11 -10 -8 -25 4 -18 6 4 17 -1 25 -11 13 -17 13 -16 3 9
-12 27 -20 32 -32 20z"/>
<path d="M222 230 c-7 -11 -9 -20 -4 -20 10 0 32 22 32 32 0 15 -15 8 -28 -12z"/>
<path d="M585 230 c-8 -13 13 -40 31 -40 22 0 28 22 9 37 -23 16 -32 16 -40 3z
m35 -15 c7 -9 8 -15 2 -15 -5 0 -12 7 -16 15 -3 8 -4 15 -2 15 2 0 9 -7 16
-15z"/>
<path d="M269 218 c-11 -7 -11 -11 -1 -15 18 -7 15 -26 -4 -19 -8 3 -12 2 -9
-4 11 -17 35 -11 35 9 0 11 5 21 12 23 8 3 7 6 -3 10 -9 3 -22 2 -30 -4z"/>
<path d="M534 198 c-5 -7 -2 -9 9 -5 9 3 18 0 21 -9 3 -8 0 -14 -6 -14 -6 0
-9 -3 -5 -6 3 -4 13 -4 22 0 13 5 13 9 3 26 -14 22 -33 26 -44 8z"/>
<path d="M322 169 c-1 -34 11 -29 23 9 4 15 2 22 -8 22 -9 0 -14 -11 -15 -31z"/>
<path d="M490 190 c-10 -6 -11 -10 -2 -10 6 0 12 -10 12 -22 0 -27 5 -21 14
15 7 28 1 33 -24 17z"/>
<path d="M365 170 c-8 -26 7 -45 30 -36 21 8 16 50 -7 54 -10 2 -19 -5 -23
-18z m22 -22 c-3 -7 -5 -2 -5 12 0 14 2 19 5 13 2 -7 2 -19 0 -25z"/>
<path d="M427 175 c-9 -22 3 -46 22 -43 10 2 16 13 16 28 0 28 -29 40 -38 15z
m20 -27 c-3 -7 -5 -2 -5 12 0 14 2 19 5 13 2 -7 2 -19 0 -25z"/>
</g>
</svg>
